<?xml version="1.0" encoding="utf-8"?>
<!-- Generator: Adobe Illustrator 24.2.1, SVG Export Plug-In . SVG Version: 6.00 Build 0)  -->
<svg version="1.1" id="Layer_1" xmlns="http://www.w3.org/2000/svg" xmlns:xlink="http://www.w3.org/1999/xlink" x="0px" y="0px"
	 viewBox="0 0 50 50" style="enable-background:new 0 0 50 50;" xml:space="preserve">
<style type="text/css">
	.st0{fill:#FFFFFF;}
</style>
<path class="st0" d="M25,2C15.1,2,7,4.7,7,8v17c0,5.1,5.4,19.1,18,22c12.6-2.9,18-16.9,18-22V8C43,4.7,34.9,2,25,2z M25,4
	c10.5,0,16,3,16,4v17c0,4.1-4.3,15.5-14,19.3V38h-4v6.3C13.3,40.5,9,29.1,9,25V8C9,7,14.5,4,25,4z M17,11c-2,0-4.1,0.9-6,4
	c2-1.4,3.6-2,5-2c2.7,0,4,3.1,4.4,3.6c0.6,0.6,1.5,0.6,2.1,0c0.6-0.6,0.6-1.5,0-2.1C22.2,14.1,20.4,11,17,11z M33,11
	c-3.4,0-5.2,3.1-5.6,3.4c-0.6,0.6-0.6,1.5,0,2.1c0.6,0.6,1.5,0.6,2.1,0C30,16.1,31.3,13,34,13c1.4,0,3,0.6,5,2
	C37.1,11.9,35,11,33,11z M16,17c-1.6,0-3.1,0.6-4,1.5c0.9,0.9,2.4,1.5,4,1.5s3.1-0.6,4-1.5C19.1,17.6,17.6,17,16,17z M34,17
	c-1.6,0-3.1,0.6-4,1.5c0.9,0.9,2.4,1.5,4,1.5s3.1-0.6,4-1.5C37.1,17.6,35.6,17,34,17z M11,26l5,8h7l2-2l2,2h7l5-8l-6,5h-4l-3-3h-2
	l-3,3h-4L11,26z"/>
</svg>
